<svg xmlns="http://www.w3.org/2000/svg" viewBox="0 0 1600 900" width="1600" height="900"><defs><linearGradient id="g" x1="0" y1="0" x2="1" y2="1"><stop offset="0" stop-color="#020a05"/><stop offset="1" stop-color="#052e16"/></linearGradient><linearGradient id="t" x1="0" y1="0" x2="1" y2="0"><stop offset="0" stop-color="#4ade80"/><stop offset="1" stop-color="#22c55e"/></linearGradient></defs><rect width="1600" height="900" fill="url(#g)"/><g stroke="#166534" stroke-opacity="0.35" stroke-width="1"><line x1="0" y1="0" x2="1600" y2="0"/><line x1="0" y1="45" x2="1600" y2="45"/><line x1="0" y1="90" x2="1600" y2="90"/><line x1="0" y1="135" x2="1600" y2="135"/><line x1="0" y1="180" x2="1600" y2="180"/><line x1="0" y1="225" x2="1600" y2="225"/><line x1="0" y1="270" x2="1600" y2="270"/><line x1="0" y1="315" x2="1600" y2="315"/><line x1="0" y1="360" x2="1600" y2="360"/><line x1="0" y1="405" x2="1600" y2="405"/><line x1="0" y1="450" x2="1600" y2="450"/><line x1="0" y1="495" x2="1600" y2="495"/><line x1="0" y1="540" x2="1600" y2="540"/><line x1="0" y1="585" x2="1600" y2="585"/><line x1="0" y1="630" x2="1600" y2="630"/><line x1="0" y1="675" x2="1600" y2="675"/><line x1="0" y1="720" x2="1600" y2="720"/><line x1="0" y1="765" x2="1600" y2="765"/><line x1="0" y1="810" x2="1600" y2="810"/><line x1="0" y1="855" x2="1600" y2="855"/><line x1="0" y1="0" x2="0" y2="900"/><line x1="45" y1="0" x2="45" y2="900"/><line x1="90" y1="0" x2="90" y2="900"/><line x1="135" y1="0" x2="135" y2="900"/><line x1="180" y1="0" x2="180" y2="900"/><line x1="225" y1="0" x2="225" y2="900"/><line x1="270" y1="0" x2="270" y2="900"/><line x1="315" y1="0" x2="315" y2="900"/><line x1="360" y1="0" x2="360" y2="900"/><line x1="405" y1="0" x2="405" y2="900"/><line x1="450" y1="0" x2="450" y2="900"/><line x1="495" y1="0" x2="495" y2="900"/><line x1="540" y1="0" x2="540" y2="900"/><line x1="585" y1="0" x2="585" y2="900"/><line x1="630" y1="0" x2="630" y2="900"/><line x1="675" y1="0" x2="675" y2="900"/><line x1="720" y1="0" x2="720" y2="900"/><line x1="765" y1="0" x2="765" y2="900"/><line x1="810" y1="0" x2="810" y2="900"/><line x1="855" y1="0" x2="855" y2="900"/><line x1="900" y1="0" x2="900" y2="900"/><line x1="945" y1="0" x2="945" y2="900"/><line x1="990" y1="0" x2="990" y2="900"/><line x1="1035" y1="0" x2="1035" y2="900"/><line x1="1080" y1="0" x2="1080" y2="900"/><line x1="1125" y1="0" x2="1125" y2="900"/><line x1="1170" y1="0" x2="1170" y2="900"/><line x1="1215" y1="0" x2="1215" y2="900"/><line x1="1260" y1="0" x2="1260" y2="900"/><line x1="1305" y1="0" x2="1305" y2="900"/><line x1="1350" y1="0" x2="1350" y2="900"/><line x1="1395" y1="0" x2="1395" y2="900"/><line x1="1440" y1="0" x2="1440" y2="900"/><line x1="1485" y1="0" x2="1485" y2="900"/><line x1="1530" y1="0" x2="1530" y2="900"/><line x1="1575" y1="0" x2="1575" y2="900"/></g><text x="800" y="380" text-anchor="middle" font-family="ui-monospace,Menlo,monospace" font-size="180" fill="#4ade80">🦓</text><text x="800" y="540" text-anchor="middle" font-family="ui-monospace,Menlo,monospace" font-weight="700" font-size="72" fill="url(#t)">Zamba 2</text><text x="800" y="620" text-anchor="middle" font-family="ui-monospace,Menlo,monospace" font-size="30" fill="#22c55e" letter-spacing="6">OPEN SOURCE · LOCAL · 2026</text><text x="1560" y="880" text-anchor="end" font-family="ui-monospace,Menlo,monospace" font-size="22" fill="#4ade80" opacity="0.85">AIWEBTOOLS.AI</text></svg>